<?xml version="1.0" encoding="UTF-8"?>
<svg xmlns="http://www.w3.org/2000/svg" xmlns:xlink="http://www.w3.org/1999/xlink" width="15px" height="15px" viewBox="0 0 15 15" version="1.1">
<g id="surface1">
<path style=" stroke:none;fill-rule:evenodd;fill:rgb(10.588235%,12.156863%,13.725491%);fill-opacity:1;" d="M 7.5 0 C 3.355469 0 0 3.355469 0 7.5 C 0 10.820312 2.148438 13.621094 5.128906 14.617188 C 5.503906 14.679688 5.644531 14.457031 5.644531 14.257812 C 5.644531 14.082031 5.632812 13.492188 5.632812 12.863281 C 3.75 13.210938 3.261719 12.402344 3.113281 11.980469 C 3.027344 11.765625 2.664062 11.101562 2.34375 10.921875 C 2.082031 10.78125 1.707031 10.433594 2.335938 10.425781 C 2.925781 10.414062 3.347656 10.96875 3.488281 11.195312 C 4.164062 12.328125 5.242188 12.007812 5.671875 11.8125 C 5.738281 11.324219 5.933594 10.996094 6.148438 10.808594 C 4.480469 10.621094 2.738281 9.976562 2.738281 7.105469 C 2.738281 6.289062 3.027344 5.617188 3.507812 5.089844 C 3.429688 4.902344 3.167969 4.132812 3.582031 3.101562 C 3.582031 3.101562 4.210938 2.90625 5.644531 3.871094 C 6.242188 3.703125 6.882812 3.617188 7.519531 3.617188 C 8.15625 3.617188 8.792969 3.703125 9.394531 3.871094 C 10.828125 2.898438 11.457031 3.101562 11.457031 3.101562 C 11.867188 4.132812 11.605469 4.902344 11.53125 5.089844 C 12.007812 5.617188 12.300781 6.28125 12.300781 7.105469 C 12.300781 9.984375 10.546875 10.621094 8.878906 10.808594 C 9.148438 11.042969 9.382812 11.492188 9.382812 12.195312 C 9.382812 13.199219 9.375 14.007812 9.375 14.257812 C 9.375 14.457031 9.515625 14.691406 9.890625 14.617188 C 12.851562 13.621094 15 10.808594 15 7.5 C 15 3.355469 11.644531 0 7.5 0 Z M 7.5 0 "/>
</g>
</svg>
